<svg xmlns="http://www.w3.org/2000/svg" viewBox="0 0 527.3 349.3" fill="#da2530"><style>.logo-text{fill:#000;font-family:Times New Roman,serif;font-weight:700;font-size:520%}</style><circle id="top-dot" cx="263.6" cy="19.5" r="15.3"/><path id="top-arc" d="M224.8 53.5c-2.1-2.1-3.5-5-3.5-8.3 0-6.4 5.2-11.6 11.6-11.6 3.1 0 6 1.3 8.1 3.2l18.5 19.3c1 1 2.4 1.7 3.9 1.7s2.8-.6 3.8-1.5l19.2-19.5c2.1-2 4.9-3.2 8.1-3.2 6.4 0 11.6 5.2 11.6 11.6 0 3.2-1.3 6.2-3.5 8.3L269.7 86c-1.5 1.7-3.8 2.7-6.2 2.7-2.5 0-4.6-1-6.3-2.7l-32.4-32.5z"/><path id="middle-arc" d="M242.7 96.3c5.2 5.6 12.6 9.1 20.7 9.1 8.3 0 15.7-3.5 20.9-9.2l30.2-30.4c2.1-2.2 5.2-3.6 8.4-3.6 6.4 0 11.6 5.2 11.6 11.6 0 3.2-1.3 6.2-3.4 8.3l-26.6 27c-13.4 12.9-21.3 21.4-41.2 21.1-19.2-.3-26.9-8.3-40-21L196.5 82c-2.1-2.1-3.4-5-3.4-8.3 0-6.4 5.2-11.6 11.6-11.6 3.4 0 6.3 1.4 8.4 3.6l29.6 30.6z"/><path id="bottom-arc" d="M218.9 129.4c13.2 11.3 25.6 17.4 44.7 17.8 19.6-.1 32.2-6.2 45.5-17.8l34.4-35.6c2.1-2.1 5-3.4 8.1-3.4 6.4 0 11.6 5.2 11.6 11.6 0 3.2-1.3 6.2-3.4 8.3l-45.8 44c-12.7 10.4-30.7 15.7-50.7 15.7-19.9 0-37.9-5.2-50.7-15.7l-44.9-43.8c-2.1-2.1-3.4-5-3.4-8.3 0-6.4 5.2-11.6 11.6-11.6 3.2 0 6 1.3 8.1 3.4l34.9 35.4z"/><text id="Texas" class="logo-text" x="0" y="249">T</text><text id="tExas" class="logo-text" x="8.2%" y="249">e</text><text id="teXas" class="logo-text" x="14.5%" y="249">x</text><text id="texAs" class="logo-text" x="21.7%" y="249">a</text><text id="texaS" class="logo-text" x="28.8%" y="249">s</text><text id="Children's" class="logo-text" x="38.25%" y="249">C</text><text id="cHildren's" class="logo-text" x="48.75%" y="249">h</text><text id="chIldren's" class="logo-text" x="56.6%" y="249">i</text><text id="chiLdren's" class="logo-text" x="60%" y="249">l</text><text id="chilDren's" class="logo-text" x="63.5%" y="249">d</text><text id="childRen's" class="logo-text" x="71.5%" y="249">r</text><text id="childrEn's" class="logo-text" x="77.3%" y="249">e</text><text id="childreN's" class="logo-text" x="83.5%" y="249">n</text><text id="children's" class="logo-text" x="90.25%" y="250">’</text><text id="children'S" class="logo-text" x="93.75%" y="249">s</text><text id="Hospital-r" class="logo-text" x="22%" y="329">H</text><text id="hOspital-r" class="logo-text" x="33.7%" y="329">o</text><text id="hoSpital-r" class="logo-text" x="41%" y="329">s</text><text id="hosPital-r" class="logo-text" x="46.5%" y="329">p</text><text id="hospItal-r" class="logo-text" x="54.45%" y="329">i</text><text id="hospiTal-r" class="logo-text" x="58.25%" y="329">t</text><text id="hospitAl-r" class="logo-text" x="63%" y="329">a</text><text id="hospitaL-r" class="logo-text" x="70.25%" y="329">l</text><text class="logo-text" x="74.75%" y="282" style="-webkit-transform:scale(.275);transform-origin:74.75% 80.5%;-webkit-transform-origin:74.75% 80.5%" transform="scale(.275)">®</text></svg>